<svg tabindex="0" version="1.1" xmlns="http://www.w3.org/2000/svg" xmlns:xlink="http://www.w3.org/1999/xlink" width="1371" height="932" viewBox="-992 -109.5970094821298 1792 1218.1940189642596" id="ccdiagram"><filter id="grayscale"><feColorMatrix type="matrix" values="0.3333 0.3333 0.3333 0 0 0.3333 0.3333 0.3333 0 0 0.3333 0.3333 0.3333 0 0 0 0 0 1 0"></feColorMatrix></filter><defs><style type="text/css">@import url('https://fonts.googleapis.com/css?family=Open+Sans:400,700|Inconsolata:400');</style></defs><g><g style="pointer-events: none;"><g><pattern id="gridPatternMinor" x="0" y="37" width="128" height="74" patternUnits="userSpaceOnUse"><path d="M 0 0 L 128 74" stroke="#eee" stroke-width="1"></path><path d="M 128 0 L 0 74" stroke="#eee" stroke-width="1"></path></pattern><polygon points="0 0, 768 444, -192 999, -960 555" fill="url(#gridPatternMinor)"></polygon></g><polygon points="-960 555, -960 565, -192 1009, -192 999" stroke-linejoin="round" stroke="#54626f" stroke-width="1" fill="#f9f9f9"></polygon><polygon points="-192 1009, 768 454, 768 444, -192 999" stroke-linejoin="round" stroke="#54626f" stroke-width="1" fill="#e2e2e2"></polygon></g><g pointer-events="auto"></g><g style="pointer-events: none;"><g><pattern id="gridPatternMajor" x="0" y="37" width="128" height="74" patternUnits="userSpaceOnUse"><path d="M 64 0 L 128 37 64 74 0 37 z" stroke="#54626f" stroke-width="1" fill="none"></path></pattern><polygon points="0 0, 768 444, -192 999, -960 555" fill="url(#gridPatternMajor)"></polygon></g></g><g pointer-events="auto"></g><g></g><g pointer-events="auto"></g><g></g><g pointer-events="auto"></g><g pointer-events="auto"></g><g pointer-events="none"></g><g pointer-events="auto"><g><g cursor="cell"><line x1="-368" y1="398" x2="-298" y2="357" stroke="red" stroke-width="8" opacity="0"></line><line x1="-368" y1="398" x2="-298" y2="357" stroke="#000000" stroke-width="2" stroke-linecap="round"></line><polygon points="-288 352, -314 357, -300 359, -297 366, -288 352" stroke-linejoin="round" fill="#000000" stroke="#000000" stroke-width="1"></polygon></g></g><g><g cursor="cell"><line x1="-208" y1="305" x2="18" y2="314" stroke="red" stroke-width="8" opacity="0"></line><line x1="-208" y1="305" x2="18" y2="314" stroke="#000000" stroke-width="2" stroke-linecap="round"></line><polygon points="32 315, 8 307, 14 314, 7 320, 32 315" stroke-linejoin="round" fill="#000000" stroke="#000000" stroke-width="1"></polygon></g></g><g><g cursor="cell"><line x1="-704" y1="444" x2="-447" y2="436" stroke="red" stroke-width="8" opacity="0"></line><line x1="-704" y1="444" x2="-447" y2="436" stroke="#000000" stroke-width="2" stroke-linecap="round"></line><polygon points="-433 435, -458 430, -451 436, -457 443, -433 435" stroke-linejoin="round" fill="#000000" stroke="#000000" stroke-width="1"></polygon></g></g></g><g pointer-events="auto"><g opacity="1"><g id="3b109a48-e08f-4a84-9789-64d5bb665497" transform="translate(0 0)"><g><polygon points="64 185, 128 222, 64 259, 0 222" fill="#ececed"></polygon><polygon points="0 296, 64 333, 64 259, 0 222" fill="#d2d2d4" stroke="#83838a"></polygon><polygon points="64 333, 128 296, 128 222, 64 259" fill="#b8b8bb" stroke="#83838a"></polygon><polygon points="64 185, 0 222, 0 296, 64 333, 128 296, 128 222" fill="none" stroke="#000000" stroke-width="2"></polygon></g></g></g><g opacity="1"><g id="0f37102d-b683-4244-9140-62ec68febe1d" transform="translate(0 0)"><svg x="-304" y="247" height="113.438" width="96" viewBox="0 0 25.4 30.014"><g transform="translate(412.599 -86.957)"><g fill-rule="evenodd"><path d="M-412.333 102.348v4.786l8.29 4.785h8.289l8.29-4.785v-4.786l-8.29-4.786h-8.29z" fill="#3c3c3c"></path><path d="M-395.754 111.92l8.29-4.786v4.785l-8.29 4.786z" fill="#090909"></path><path d="M-404.044 111.92h8.29v4.785h-8.29z" fill="#232323"></path><path d="M-412.333 107.134v4.785l8.29 4.786v-4.786z" fill="#232323"></path><path d="M-412.333 107.134l8.29 4.785h8.289l8.29-4.785M-404.044 111.92v4.785M-395.754 111.92v4.785" fill="none" stroke="#a2a2a2" stroke-width=".26588"></path><path d="M-412.333 102.348v9.571l8.29 4.786h8.289l8.29-4.786v-9.571l-8.29-4.786h-8.29z" fill="none" stroke="#000000" stroke-width=".53176"></path></g><path d="M-412.333 97.178v4.786l8.29 4.786h8.289l8.29-4.786v-4.786l-8.29-4.786h-8.29z" fill="#3c3c3c" fill-rule="evenodd" stroke-width=".332"></path><path d="M-395.754 106.75l8.29-4.786v4.786l-8.29 4.786z" fill="#090909" fill-rule="evenodd" stroke-width=".332"></path><path d="M-404.044 106.75h8.29v4.786h-8.29z" fill="#232323" fill-rule="evenodd" stroke-width=".332"></path><path d="M-412.333 101.964v4.786l8.29 4.786v-4.786z" fill="#232323" fill-rule="evenodd" stroke-width=".332"></path><path d="M-412.333 101.964l8.29 4.786h8.289l8.29-4.786M-404.044 106.75v4.786M-395.754 106.75v4.786" fill="none" fill-rule="evenodd" stroke="#a2a2a2" stroke-width=".266"></path><path d="M-412.333 97.178v9.572l8.29 4.786h8.289l8.29-4.786v-9.572l-8.29-4.786h-8.29z" fill="none" fill-rule="evenodd" stroke="#000000" stroke-width=".532"></path><path d="M-412.333 92.01v4.785l8.29 4.786h8.289l8.29-4.786v-4.786l-8.29-4.786h-8.29z" fill="#3c3c3c" fill-rule="evenodd" stroke-width=".332"></path><path d="M-395.754 101.58l8.29-4.785v4.786l-8.29 4.786z" fill="#090909" fill-rule="evenodd" stroke-width=".332"></path><path d="M-404.044 101.58h8.29v4.787h-8.29z" fill="#232323" fill-rule="evenodd" stroke-width=".332"></path><path d="M-412.333 96.795v4.786l8.29 4.786v-4.786z" fill="#232323" fill-rule="evenodd" stroke-width=".332"></path><path d="M-412.333 96.795l8.29 4.786h8.289l8.29-4.786M-404.044 101.58v4.787M-395.754 101.58v4.787" fill="none" fill-rule="evenodd" stroke="#a2a2a2" stroke-width=".266"></path><path d="M-412.333 92.01v9.57l8.29 4.787h8.289l8.29-4.786v-9.572l-8.29-4.786h-8.29z" fill="none" fill-rule="evenodd" stroke="#000000" stroke-width=".532"></path><circle cx="-136.478" cy="325.284" fill="#f4b934" r="5.801" stroke-width=".286" transform="scale(1.22475 .7071) rotate(45)"></circle><g style="line-height: 0%;"><path d="M-399.242 93.57l.48-.601q.222-.275.177-.448-.04-.17-.467-.416l-.507-.293 1.065-.614.937.541q.825.476.92.934.1.46-.417 1.114l-3.452 4.39-1.622-.937 1.654-2.121-3.729.923-1.622-.936z" fill="#ffffff" font-family="Droid Serif" font-size="9.971" stroke-width=".266" style="line-height: 1.25;"></path></g></g></svg></g></g><g opacity="1"><g id="e14356cc-020c-4668-b918-1aa1c4890ce5" transform="translate(0 0)"><svg x="-478" y="354" height="108.05" width="123" viewBox="0 0 32.544 28.588"><path d="M10.115 6.02v14.218l7.873-4.318V1.474z" fill="#090909" fill-rule="evenodd" stroke="#a2a2a2" stroke-width=".268"></path><path d="M.265 2.228l9.85 3.791v14.219l-9.85-8.531z" fill="#232323" fill-rule="evenodd" stroke="#a2a2a2" stroke-width=".265"></path><path d="M10.115 6.02l7.873-4.546L3.548.332.265 2.228z" fill="#3c3c3c" fill-rule="evenodd" stroke="#a2a2a2" stroke-width=".265"></path><path d="M.265 11.707l9.85 8.53 7.873-4.317V1.474L3.392.271.265 2.076z" fill="none" fill-rule="evenodd" stroke="#000000" stroke-width=".529"></path><path d="M22.429 3.65L14.22 8.39l14.828 10.397 3.231-1.866z" fill="#3c3c3c" fill-rule="evenodd" stroke="#a2a2a2" stroke-width=".268"></path><path d="M14.22 8.39V22.61l14.777 5.687.051-9.509z" fill="#232323" fill-rule="evenodd" stroke="#a2a2a2" stroke-width=".265"></path><path d="M29.048 18.787l3.231-1.866V26.4l-3.282 1.897z" fill="#090909" fill-rule="evenodd" stroke="#a2a2a2" stroke-width=".265"></path><path d="M22.429 3.65L14.22 8.39V22.61l14.777 5.687 3.282-1.897v-9.478z" fill="none" fill-rule="evenodd" stroke="#000000" stroke-width=".529"></path><path d="M21.09 20.43q.163.375.048.64t-.44.265q-.326 0-.671-.265-.346-.265-.509-.64-.162-.374-.047-.639t.44-.265q.326 0 .671.265.346.265.509.64zm1.573-1.808q.08.184.022.318-.059.134-.218.134-.16 0-.335-.134-.176-.135-.255-.318-.082-.187-.024-.32.058-.132.22-.132.163 0 .336.132.173.133.254.32zm1.573 3.617q.08.184.021.318-.058.134-.218.134t-.335-.134q-.175-.135-.255-.318-.081-.187-.023-.32.057-.132.22-.132t.335.132q.173.133.255.32zm-1.826-1.487l-.284-.654q-.016-.035-.052-.068-.036-.034-.065-.038l-.513-.084q-.088-.124-.215-.269.03-.17.1-.406.006-.035-.01-.07-.018-.043-.05-.068-.117-.106-.39-.316-.275-.21-.333-.21-.034 0-.054.025l-.215.317q-.143-.067-.284-.11-.2-.38-.309-.547-.058-.085-.129-.085h-.571q-.034 0-.05.027-.016.026-.004.062l.164.54q-.089.036-.182.11l-.5-.315q-.032-.024-.071-.024-.034 0-.053.028-.238.47-.196.565.014.032.05.067.053.05.208.187.155.138.238.216-.003.155.018.29l-.43.084q-.029.004-.038.034-.008.03.008.069l.285.653q.015.036.051.069.036.033.065.037l.513.085q.088.124.215.268-.03.17-.1.407-.005.038.01.07.018.043.052.07.113.107.388.315.275.208.333.209.034 0 .054-.025l.215-.318q.132.064.286.113.2.382.307.544.058.085.129.085h.571q.034 0 .05-.027.016-.026.004-.062l-.164-.54q.089-.035.183-.11l.499.315q.035.024.072.024.033 0 .052-.028.238-.47.196-.565-.014-.032-.05-.067-.062-.057-.212-.19-.15-.135-.23-.213-.004-.169-.022-.29l.431-.08q.028-.007.036-.038.008-.03-.008-.068zm1.147-1.883l-.215-.494q-.025-.057-.505-.11-.079-.095-.172-.183-.017-.4-.056-.488-.006-.014-.023-.024-.483-.251-.49-.251-.024 0-.069.166-.044.166-.055.24-.064-.007-.095-.007t-.09.007q-.075-.074-.264-.24-.188-.166-.213-.166-.006 0-.272.25-.008.011-.002.025.039.088.369.488-.017.088-.012.183-.435.053-.41.11l.215.494q.024.057.505.11.084.102.172.184.017.399.055.487.006.014.023.025l.138.07.234.12q.11.057.117.057.024 0 .07-.164.045-.164.056-.239.064.007.095.007.03 0 .089-.007.266.251.455.396l.021.007q.012 0 .273-.247.008-.01.002-.025-.038-.088-.368-.487.017-.082.012-.184.435-.053.41-.11zm1.572 3.617l-.215-.494q-.024-.057-.505-.11-.078-.095-.172-.184-.017-.399-.055-.487-.006-.014-.023-.025-.484-.25-.49-.25-.025 0-.069.165-.044.166-.055.24-.065-.006-.096-.006-.03 0-.089.007-.075-.075-.264-.24-.189-.166-.213-.166-.006 0-.272.25-.008.01-.002.025.038.088.369.487-.017.088-.013.184-.434.053-.41.11l.215.494q.025.057.505.11.085.102.173.183.016.4.055.488.006.014.023.024l.138.07.233.121q.111.057.117.057.025 0 .07-.165.045-.164.056-.238.065.007.095.007.031 0 .09-.007.265.25.454.396l.022.007q.012 0 .273-.248.008-.01.002-.024-.038-.088-.369-.488.017-.08.013-.183.434-.053.41-.11z" fill="#f4b934" stroke-width=".265"></path></svg></g></g><g opacity="1"><g id="cf890d5b-0bc7-4b42-ab20-2a3fb46f852d" transform="translate(0 0)"><g><polygon points="-704 407, -640 444, -704 481, -768 444" fill="#ececed"></polygon><polygon points="-768 518, -704 555, -704 481, -768 444" fill="#d2d2d4" stroke="#83838a"></polygon><polygon points="-704 555, -640 518, -640 444, -704 481" fill="#b8b8bb" stroke="#83838a"></polygon><polygon points="-704 407, -768 444, -768 518, -704 555, -640 518, -640 444" fill="none" stroke="#000000" stroke-width="2"></polygon></g></g></g></g><g pointer-events="auto"></g><g pointer-events="auto"><g opacity="1"><g id="570b6c37-5e45-45b7-8e19-7ff968da40b0" transform="translate(0 0)"><svg x="64" y="222" overflow="visible"><g transform="scale(0.8944271909999159) matrix(0.707 0.409 -0.707 0.409 0 0)"><circle cx="0" cy="0" fill="#000000" r="23"></circle><svg width="30" height="32" x="-15" y="-16" style="fill: rgb(255, 255, 255);"><svg xmlns="http://www.w3.org/2000/svg" width="30" height="32" viewBox="0 0 30 32"><path d="M27.125 13.857c1.464 0 2.589 1.071 2.589 2.536 0 1.143-.589 1.946-1.661 2.321l-3.071 1.054 1 2.982c.089.268.125.554.125.839 0 1.411-1.143 2.589-2.554 2.589a2.595 2.595 0 01-2.482-1.768l-.982-2.946-5.536 1.893.982 2.929c.089.268.143.554.143.839 0 1.393-1.143 2.589-2.571 2.589a2.572 2.572 0 01-2.464-1.768l-.982-2.911-2.732.946a3.04 3.04 0 01-.893.161c-1.446 0-2.536-1.071-2.536-2.518 0-1.107.714-2.107 1.768-2.464l2.786-.946-1.875-5.589-2.786.964a2.882 2.882 0 01-.857.143C1.107 15.732 0 14.643 0 13.214c0-1.107.714-2.107 1.768-2.464l2.804-.946-.946-2.839a2.682 2.682 0 01-.143-.839c0-1.411 1.143-2.589 2.571-2.589 1.125 0 2.107.696 2.464 1.768l.964 2.857 5.536-1.875-.964-2.857a2.682 2.682 0 01-.143-.839c0-1.411 1.161-2.589 2.571-2.589 1.125 0 2.125.714 2.482 1.768l.946 2.875 2.893-.982c.25-.071.5-.107.768-.107 1.393 0 2.589 1.036 2.589 2.464 0 1.107-.857 2.036-1.857 2.375l-2.804.964 1.875 5.643 2.929-1c.268-.089.554-.143.821-.143zm-14.179 4.679l5.536-1.875-1.875-5.625-5.536 1.911z"></path></svg></svg></g></svg></g></g><g opacity="1"><g id="6d219df8-b592-46d5-9a76-7cbbeca2a6a2" transform="translate(0 0)"><svg x="-704" y="444" overflow="visible"><g transform="scale(0.8944271909999159) matrix(0.707 0.409 -0.707 0.409 0 0)"><circle cx="0" cy="0" fill="#000000" r="23"></circle><svg width="30" height="32" x="-15" y="-16" style="fill: rgb(255, 255, 255);"><svg xmlns="http://www.w3.org/2000/svg" width="30" height="32" viewBox="0 0 30 32"><path d="M27.125 13.857c1.464 0 2.589 1.071 2.589 2.536 0 1.143-.589 1.946-1.661 2.321l-3.071 1.054 1 2.982c.089.268.125.554.125.839 0 1.411-1.143 2.589-2.554 2.589a2.595 2.595 0 01-2.482-1.768l-.982-2.946-5.536 1.893.982 2.929c.089.268.143.554.143.839 0 1.393-1.143 2.589-2.571 2.589a2.572 2.572 0 01-2.464-1.768l-.982-2.911-2.732.946a3.04 3.04 0 01-.893.161c-1.446 0-2.536-1.071-2.536-2.518 0-1.107.714-2.107 1.768-2.464l2.786-.946-1.875-5.589-2.786.964a2.882 2.882 0 01-.857.143C1.107 15.732 0 14.643 0 13.214c0-1.107.714-2.107 1.768-2.464l2.804-.946-.946-2.839a2.682 2.682 0 01-.143-.839c0-1.411 1.143-2.589 2.571-2.589 1.125 0 2.107.696 2.464 1.768l.964 2.857 5.536-1.875-.964-2.857a2.682 2.682 0 01-.143-.839c0-1.411 1.161-2.589 2.571-2.589 1.125 0 2.125.714 2.482 1.768l.946 2.875 2.893-.982c.25-.071.5-.107.768-.107 1.393 0 2.589 1.036 2.589 2.464 0 1.107-.857 2.036-1.857 2.375l-2.804.964 1.875 5.643 2.929-1c.268-.089.554-.143.821-.143zm-14.179 4.679l5.536-1.875-1.875-5.625-5.536 1.911z"></path></svg></svg></g></svg></g></g></g><g pointer-events="auto"></g><g></g><g></g></g></svg>